<?xml version="1.0" standalone="no"?>
<!DOCTYPE svg PUBLIC "-//W3C//DTD SVG 20010904//EN"
 "http://www.w3.org/TR/2001/REC-SVG-20010904/DTD/svg10.dtd">
<svg version="1.0" xmlns="http://www.w3.org/2000/svg"
 width="34.000000pt" height="34.000000pt" viewBox="0 0 34.000000 34.000000"
 preserveAspectRatio="xMidYMid meet">

<g transform="translate(0.000000,34.000000) scale(0.100000,-0.100000)"
fill="#000000" stroke="none">
<path d="M110 247 c-31 -16 -43 -68 -23 -97 20 -29 60 -42 103 -35 70 12 94
58 59 112 -11 15 -19 24 -19 19 0 -6 -5 -5 -12 2 -16 16 -76 15 -108 -1z m95
-7 c3 -5 1 -10 -4 -10 -6 0 -11 5 -11 10 0 6 2 10 4 10 3 0 8 -4 11 -10z m-50
-20 c-3 -5 -12 -10 -18 -10 -7 0 -6 4 3 10 19 12 23 12 15 0z m50 -20 c-3 -5
-11 -10 -16 -10 -6 0 -7 5 -4 10 3 6 11 10 16 10 6 0 7 -4 4 -10z m-88 -6 c-3
-3 -12 -4 -19 -1 -8 3 -5 6 6 6 11 1 17 -2 13 -5z m52 -8 c9 -11 9 -16 0 -22
-8 -4 -9 -3 -5 4 4 7 1 12 -9 12 -9 0 -13 5 -10 10 8 13 10 13 24 -4z m-69
-16 c0 -5 8 -7 18 -4 10 4 13 2 7 -3 -5 -4 -12 -11 -15 -15 -3 -4 -11 2 -18
12 -7 12 -8 20 -2 20 5 0 10 -4 10 -10z m130 0 c0 -5 -5 -10 -11 -10 -5 0 -7
5 -4 10 3 6 8 10 11 10 2 0 4 -4 4 -10z m-85 -30 c3 -5 1 -10 -4 -10 -6 0 -11
5 -11 10 0 6 2 10 4 10 3 0 8 -4 11 -10z m75 -3 c0 -6 -3 -7 -6 -4 -4 3 -16 2
-27 -4 -12 -7 -17 -7 -13 -1 3 6 0 12 -6 14 -7 3 2 5 20 5 17 0 32 -5 32 -10z"/>
</g>
</svg>
